<svg width="963" height="963" viewBox="0 0 963 963" fill="none" xmlns="http://www.w3.org/2000/svg">
<g clip-path="url(#clip0_1258_2)">
<rect width="963" height="963" rx="156" fill="white"/>
<rect x="171" y="138" width="314.472" height="628" rx="32" fill="#2B2B2B"/>
<rect x="187" y="172" width="282.364" height="563.784" rx="24" fill="#EBF4FF"/>
<path fill-rule="evenodd" clip-rule="evenodd" d="M543.061 826C680.062 826 791.122 749.888 791.122 656C791.122 654.773 791.104 653.549 791.066 652.328C785.069 654.698 778.533 656 771.694 656C742.569 656 718.959 632.39 718.959 603.265C718.959 583.739 729.572 566.692 745.343 557.576C700.383 514.257 626.538 486 543.061 486C406.061 486 295 562.112 295 656C295 749.888 406.061 826 543.061 826Z" fill="#BDC1C7"/>
<ellipse cx="416.082" cy="580.02" rx="46.8367" ry="33.6531" fill="#FF2929"/>
<ellipse cx="395.959" cy="689.653" rx="46.8367" ry="33.6531" fill="#FF9029"/>
<ellipse cx="528.49" cy="756.959" rx="46.8367" ry="33.6531" fill="#47FF29"/>
<ellipse cx="543.061" cy="647.327" rx="46.8367" ry="33.6531" fill="#FFEA29"/>
<ellipse cx="557.633" cy="537.694" rx="46.8367" ry="33.6531" fill="#29FFE5"/>
<ellipse cx="651.306" cy="605" rx="46.8367" ry="33.6531" fill="#293FFF"/>
<ellipse cx="661.02" cy="714.633" rx="46.8367" ry="33.6531" fill="#FF29DD"/>
</g>
<defs>
<clipPath id="clip0_1258_2">
<rect width="963" height="963" fill="white"/>
</clipPath>
</defs>
</svg>
