<svg width="963" height="963" viewBox="0 0 963 963" fill="none" xmlns="http://www.w3.org/2000/svg">
<g clip-path="url(#clip0_1258_2)">
<rect width="963" height="963" rx="156" fill="white"/>
<rect x="85" y="51" width="333" height="665" rx="32" fill="#2B2B2B"/>
<rect x="102" y="85" width="299" height="597" rx="32" fill="#EBF4FF"/>
<path fill-rule="evenodd" clip-rule="evenodd" d="M523.5 874C720.942 874 881 764.31 881 629C881 627.232 880.973 625.468 880.918 623.708C872.276 627.124 862.857 629 853 629C811.026 629 777 594.974 777 553C777 524.86 792.294 500.291 815.024 487.154C750.229 424.724 643.804 384 523.5 384C326.058 384 166 493.69 166 629C166 764.31 326.058 874 523.5 874Z" fill="#6D4A15"/>
<ellipse cx="340.5" cy="519.5" rx="67.5" ry="48.5" fill="#FF2929"/>
<ellipse cx="311.5" cy="677.5" rx="67.5" ry="48.5" fill="#FF9029"/>
<ellipse cx="502.5" cy="774.5" rx="67.5" ry="48.5" fill="#47FF29"/>
<ellipse cx="523.5" cy="616.5" rx="67.5" ry="48.5" fill="#FFEA29"/>
<ellipse cx="544.5" cy="458.5" rx="67.5" ry="48.5" fill="#29FFE5"/>
<ellipse cx="679.5" cy="555.5" rx="67.5" ry="48.5" fill="#293FFF"/>
<ellipse cx="693.5" cy="713.5" rx="67.5" ry="48.5" fill="#FF29DD"/>
</g>
<defs>
<clipPath id="clip0_1258_2">
<rect width="963" height="963" fill="white"/>
</clipPath>
</defs>
</svg>
